<!-- Generated by IcoMoon.io -->
<svg version="1.1" xmlns="http://www.w3.org/2000/svg" width="40" height="32" viewBox="0 0 40 32">
<title>Component-20</title>
<path fill="#ff0" d="M5.371 2.281l-5.371-0.022v0.392c0.056 0.396 0.116 0.789 0.161 1.185 0.24 1.884 0.482 3.768 0.711 5.654 0.144 1.365 0.883 2.532 1.949 3.252l0.016 0.010c0.728 0.523 1.638 0.837 2.621 0.837 0.242 0 0.479-0.019 0.71-0.055l-0.026 0.003v-11.254z"></path>
<path fill="#ff0" d="M40.225 2.31q-2.846 0-5.691 0c-0.096 0.008-0.183 0.022-0.268 0.044l0.011-0.002v11.183c0.203 0.032 0.438 0.050 0.676 0.050 2.187 0 4.018-1.522 4.493-3.564l0.006-0.031c0.17-0.867 0.243-1.751 0.352-2.629 0.129-1.019 0.246-2.040 0.376-3.055 0.071-0.551 0.161-1.1 0.24-1.65v-0.322c-0.056-0.012-0.122-0.021-0.19-0.026l-0.004-0z"></path>
<path fill="#ff0" d="M31.751 0h-23.082c0 0.127-0.016 0.228-0.016 0.331q0 5.457 0 10.913c-0.001 0.046-0.001 0.099-0.001 0.153 0 0.538 0.040 1.067 0.118 1.583l-0.007-0.058c0.368 2.42 1.486 4.529 3.105 6.134l0.001 0.001c2.085 2.161 5.006 3.502 8.241 3.502 0.832 0 1.643-0.089 2.424-0.257l-0.075 0.014c2.82-0.503 5.22-2.011 6.867-4.132l0.019-0.025c1.464-1.752 2.367-4.015 2.411-6.489l0-0.010c0.043-3.794 0.016-7.59 0.018-11.384-0.003-0.087-0.014-0.175-0.023-0.277z"></path>
<path fill="#ff0" d="M24.855 25.379c-0.035-0.207-0.214-0.363-0.428-0.363-0.026 0-0.051 0.002-0.076 0.007l0.003-0q-4.129 0.018-8.257 0c-0.022-0.004-0.048-0.006-0.074-0.006-0.24 0-0.438 0.18-0.467 0.412l-0 0.002c-0.368 1.177-0.764 2.344-1.156 3.537h-1.619v3.034h14.865v-3.040h-1.629c-0.394-1.209-0.789-2.394-1.161-3.582z"></path>
</svg>
