<!-- Generated by IcoMoon.io -->
<svg version="1.1" xmlns="http://www.w3.org/2000/svg" width="32" height="32" viewBox="0 0 32 32">
<title>Group-194</title>
<path fill="#b2a2d8" d="M27.442 4.611c1.006-1.009 1.985-2 2.98-2.976 0.333-0.326 0.657-0.835 1.195-0.62 0.573 0.227 0.444 0.83 0.444 1.318q0 4.191 0 8.381c0 0.933-0.343 1.277-1.287 1.287q-4.317 0-8.632 0c-0.032 0.002-0.068 0.002-0.106 0.002-0.139 0-0.274-0.012-0.406-0.034l0.014 0.002c-0.644-0.137-0.82-0.586-0.41-1.099 0.347-0.406 0.697-0.775 1.066-1.125l0.007-0.006c0.749-0.753 1.502-1.502 2.298-2.292-1.123-1.1-2.472-1.975-3.97-2.548l-0.079-0.027c-1.34-0.561-2.897-0.886-4.53-0.886-5.922 0-10.843 4.283-11.834 9.921l-0.011 0.072c-0.103 0.592-0.162 1.274-0.162 1.969 0 5.795 4.080 10.636 9.524 11.81l0.079 0.014c0.739 0.162 1.588 0.255 2.458 0.255 5.369 0 9.912-3.541 11.42-8.415l0.023-0.085c0.218-0.868 0.984-1.503 1.901-1.519h0.002c0.024-0.001 0.053-0.002 0.082-0.002 0.85 0 1.57 0.561 1.807 1.334l0.004 0.013c0.055 0.198 0.086 0.425 0.086 0.659 0 0.262-0.039 0.515-0.112 0.754l0.005-0.018c-1.685 5.797-6.542 10.121-12.521 11.004l-0.084 0.010c-0.826 0.152-1.777 0.239-2.748 0.239-7.726 0-14.167-5.5-15.622-12.797l-0.017-0.102c-0.186-0.919-0.293-1.974-0.293-3.055 0-7.893 5.69-14.457 13.192-15.813l0.098-0.015c0.822-0.147 1.767-0.231 2.733-0.231 4.327 0 8.259 1.691 11.171 4.448l-0.007-0.007c0.064 0.043 0.116 0.077 0.242 0.178z"></path>
<path fill="#b2a2d8" d="M16.1 16.001c1.27 0 2.515 0 3.762 0 0.052-0.005 0.111-0.007 0.172-0.007 1.101 0 1.996 0.881 2.019 1.977v0.002c0 0.004 0 0.009 0 0.015 0 1.116-0.905 2.021-2.021 2.021-0.063 0-0.126-0.003-0.188-0.009l0.008 0.001q-2.811 0-5.624 0c-0.056 0.006-0.122 0.009-0.188 0.009-1.106 0-2.002-0.896-2.002-2.002 0-0.061 0.003-0.122 0.008-0.182l-0.001 0.008q0-2.843 0-5.686c-0.003-0.041-0.005-0.089-0.005-0.137 0-1.109 0.899-2.008 2.008-2.008 0.002 0 0.005 0 0.007 0v0c1.104 0.012 1.993 0.91 1.993 2.015 0 0.057-0.002 0.113-0.007 0.168v-0.007c0 1.208 0 2.416 0 3.624 0.017 0.078 0.037 0.145 0.061 0.21l-0.003-0.010z"></path>
</svg>
