<!-- Generated by IcoMoon.io -->
<svg version="1.1" xmlns="http://www.w3.org/2000/svg" width="32" height="32" viewBox="0 0 32 32">
<title>Group-167</title>
<path fill="#ff0" d="M22.251 10.916c-2.458-0.042-4.766-0.641-6.818-1.674l0.091 0.041c-0.828-0.453-1.535-1.009-2.139-1.662l-0.005-0.006c-0.562-0.572-0.91-1.356-0.91-2.222 0-0.858 0.341-1.637 0.895-2.208l-0.001 0.001c0.81-0.947 1.854-1.67 3.043-2.084l0.049-0.015c1.7-0.692 3.672-1.093 5.737-1.093 2.392 0 4.658 0.538 6.685 1.5l-0.095-0.040c0.833 0.409 1.544 0.933 2.147 1.561l0.002 0.003c0.654 0.597 1.062 1.453 1.062 2.404 0 0.946-0.404 1.797-1.048 2.391l-0.002 0.002c-1.212 1.236-2.789 2.111-4.557 2.448l-0.054 0.009c-1.346 0.304-2.724 0.436-4.085 0.643z"></path>
<path fill="#ff0" d="M9.74 13.667c2.343 0.005 4.56 0.539 6.541 1.487l-0.092-0.040c0.866 0.443 1.609 0.983 2.256 1.62l-0.001-0.001c0.658 0.597 1.070 1.455 1.070 2.41 0 0.942-0.401 1.791-1.043 2.384l-0.002 0.002c-1.085 1.11-2.469 1.923-4.022 2.307l-0.058 0.012c-1.385 0.429-2.977 0.676-4.627 0.676-2.056 0-4.022-0.384-5.831-1.084l0.11 0.038c-1.159-0.415-2.146-1.062-2.948-1.891l-0.002-0.002c-0.667-0.61-1.083-1.483-1.083-2.455 0-0.967 0.413-1.837 1.072-2.444l0.002-0.002c1.33-1.308 3.058-2.216 4.985-2.526l0.053-0.007c1.192-0.245 2.413-0.329 3.619-0.486z"></path>
<path fill="#ff0" d="M0.089 25.325c0.848 1.82 2.445 3.169 4.385 3.663l0.046 0.010c1.56 0.557 3.36 0.878 5.235 0.878s3.675-0.322 5.347-0.913l-0.112 0.035c1.984-0.502 3.582-1.845 4.419-3.619l0.017-0.041c0.076 0.293 0.12 0.629 0.12 0.975 0 1.264-0.584 2.392-1.497 3.129l-0.008 0.006c-1.376 1.139-3.080 1.93-4.949 2.216l-0.057 0.007c-0.984 0.22-2.115 0.347-3.275 0.347-2.373 0-4.623-0.528-6.639-1.474l0.096 0.040c-0.517-0.256-0.961-0.531-1.375-0.843l0.022 0.016c-1.14-0.759-1.882-2.038-1.882-3.491 0-0.334 0.039-0.659 0.113-0.971l-0.006 0.028z"></path>
<path fill="#ff0" d="M0.072 21.656c1.342 2.694 3.793 3.581 6.433 4.131 0.987 0.219 2.121 0.345 3.284 0.345 1.496 0 2.943-0.208 4.314-0.596l-0.111 0.027c2.4-0.398 4.382-1.895 5.441-3.947l0.020-0.042c0.057 0.265 0.090 0.57 0.090 0.883 0 1.657-0.919 3.099-2.275 3.844l-0.023 0.011c-1.64 1.026-3.601 1.692-5.705 1.842l-0.040 0.002c-0.564 0.076-1.216 0.119-1.879 0.119-2.38 0-4.631-0.558-6.627-1.55l0.087 0.039c-0.697-0.376-1.297-0.807-1.838-1.302l0.007 0.006c-0.787-0.728-1.278-1.766-1.278-2.918 0-0.318 0.037-0.627 0.108-0.923l-0.005 0.027z"></path>
<path fill="#ff0" d="M31.928 7.918c0.058 0.261 0.092 0.56 0.092 0.867 0 1.233-0.539 2.341-1.394 3.1l-0.004 0.004c-1.237 1.061-2.756 1.829-4.429 2.179l-0.065 0.011c-1.152 0.293-2.475 0.461-3.838 0.461-1.251 0-2.468-0.142-3.638-0.41l0.109 0.021c-0.37-0.1-0.69-0.221-0.993-0.369l0.033 0.014c-0.819-0.352-1.615-0.765-2.45-1.064-1.676-0.519-2.873-2.056-2.873-3.872 0-0.041 0.001-0.082 0.002-0.122v0.006c0-0.263 0-0.526 0-0.795 0.053 0.012 0.107 0.009 0.116 0.027 0.988 1.933 2.789 3.33 4.939 3.751l0.045 0.007c1.392 0.434 2.992 0.684 4.651 0.684 1.918 0 3.758-0.334 5.465-0.948l-0.113 0.035c1.909-0.563 3.45-1.856 4.328-3.548l0.019-0.039z"></path>
<path fill="#ff0" d="M20.468 16.060c0.197 0.011 0.371 0.018 0.546 0.029 0.4 0.037 0.865 0.058 1.334 0.058 2.246 0 4.38-0.482 6.303-1.348l-0.097 0.039c1.53-0.601 2.724-1.775 3.337-3.252l0.014-0.039c0.072 0.29 0.113 0.623 0.113 0.966 0 1.233-0.534 2.341-1.384 3.106l-0.004 0.003c-1.218 1.091-2.745 1.862-4.433 2.168l-0.056 0.008c-1.424 0.271-2.892 0.301-4.342 0.451-0.349 0.033-0.52-0.095-0.628-0.471-0.238-0.695-0.476-1.263-0.745-1.813l0.041 0.094z"></path>
<path fill="#ff0" d="M31.901 19.034c0.064 0.28 0.1 0.602 0.1 0.932 0 1.622-0.878 3.038-2.184 3.801l-0.021 0.011c-2.027 1.219-4.474 1.94-7.089 1.94-0.448 0-0.891-0.021-1.328-0.063l0.056 0.004c-0.053-0.588-0.131-1.185-0.134-1.781 0-0.095 0.337-0.275 0.516-0.272 0.187 0.008 0.407 0.013 0.627 0.013 1.557 0 3.057-0.239 4.468-0.682l-0.105 0.029c1.075-0.366 1.991-0.778 2.86-1.264l-0.086 0.044c1.080-0.587 1.901-1.535 2.31-2.679l0.011-0.034z"></path>
<path fill="#ff0" d="M21.373 22.11c0-0.549 0.012-0.872 0-1.194s-0.057-0.639-0.096-1.040c0.226 0 0.418 0 0.61 0 0.152 0.005 0.331 0.009 0.51 0.009 2.178 0 4.249-0.457 6.122-1.28l-0.098 0.038c1.586-0.594 2.828-1.791 3.468-3.305l0.015-0.039c0.072 0.291 0.114 0.625 0.114 0.969 0 1.347-0.637 2.546-1.625 3.311l-0.010 0.007c-1.349 1.075-3.004 1.823-4.814 2.098l-0.057 0.007c-1.332 0.218-2.688 0.277-4.14 0.419z"></path>
</svg>
