<!-- Generated by IcoMoon.io -->
<svg version="1.1" xmlns="http://www.w3.org/2000/svg" width="32" height="32" viewBox="0 0 32 32">
<title>knmopkebi</title>
<path fill="#afbbc4" d="M15.981 31.998c-1.521 0-1.748-0.163-2.279-1.627-0.112-0.311-0.245-0.606-0.339-0.918-0.488-1.448-1.833-2.472-3.417-2.472-0.626 0-1.215 0.16-1.728 0.441l0.019-0.009c-0.384 0.219-0.795 0.388-1.196 0.579-0.129 0.079-0.277 0.145-0.434 0.192l-0.013 0.003c-1.288 0.231-1.734-0.917-2.47-1.553-0.234-0.228-0.38-0.547-0.38-0.899 0-0.242 0.068-0.468 0.187-0.659l-0.003 0.005c0.314-0.643 0.65-1.454 0.941-2.287l0.052-0.169c0.040-0.198 0.063-0.426 0.063-0.658 0-1.256-0.665-2.358-1.662-2.971l-0.015-0.009c-0.575-0.273-1.307-0.565-2.057-0.818l-0.155-0.045c-0.633-0.184-1.088-0.758-1.088-1.439 0-0.009 0-0.018 0-0.027v0.001c0-0.186-0.008-0.374-0.009-0.561-0.008-1.721 0.093-1.922 1.754-2.458 1.634-0.527 2.973-1.33 3.18-3.2 0.006-0.093 0.010-0.202 0.010-0.312 0-0.564-0.093-1.107-0.264-1.613l0.010 0.035c-0.25-0.676-0.512-1.243-0.811-1.785l0.034 0.067c-0.099-0.175-0.157-0.385-0.157-0.608 0-0.369 0.159-0.701 0.413-0.93l0.001-0.001c1.777-1.749 1.543-2.038 3.944-0.802 0.518 0.319 1.146 0.508 1.817 0.508 0.854 0 1.638-0.306 2.246-0.814l-0.006 0.005c0.464-0.427 0.842-0.94 1.112-1.513l0.013-0.030c0.207-0.452 0.421-1.019 0.602-1.6l0.029-0.109c0.167-0.544 0.665-0.932 1.253-0.932 0.006 0 0.013 0 0.019 0h-0.001c2.486-0.034 2.582-0.214 3.324 2.175 0.374 1.605 1.791 2.782 3.484 2.782 0.47 0 0.918-0.091 1.329-0.255l-0.024 0.009c0.718-0.277 1.304-0.549 1.872-0.853l-0.090 0.044c0.192-0.113 0.423-0.179 0.669-0.179 0.395 0 0.75 0.171 0.995 0.444l0.1 0.1c1.454 1.485 1.922 1.409 0.676 3.745-0.324 0.542-0.515 1.196-0.515 1.894 0 0.749 0.22 1.447 0.6 2.032l-0.009-0.015c0.449 0.65 1.089 1.14 1.839 1.391l0.026 0.007c0.51 0.227 1.053 0.376 1.575 0.576 0.552 0.186 0.943 0.7 0.943 1.304 0 0.011 0 0.022 0 0.033v-0.002c0.101 2.413 0.095 2.503-2.189 3.253-1.505 0.385-2.624 1.663-2.767 3.223l-0.001 0.014c-0.003 0.058-0.005 0.127-0.005 0.196 0 0.511 0.098 0.999 0.275 1.447l-0.009-0.027c0.271 0.698 0.532 1.263 0.822 1.812l-0.045-0.093c0.114 0.195 0.182 0.428 0.182 0.678 0 0.395-0.169 0.751-0.439 0.999l-0.001 0.001c-1.83 1.835-1.602 1.897-3.899 0.746-0.52-0.309-1.147-0.492-1.816-0.492-0.805 0-1.547 0.264-2.147 0.71l0.010-0.007c-0.394 0.284-0.72 0.636-0.965 1.042l-0.009 0.016c-0.233 0.44-0.444 0.955-0.605 1.491l-0.016 0.062c-0.553 1.529-0.771 1.689-2.383 1.687zM23.997 15.968c-0.008-4.412-3.587-7.986-8-7.986-4.418 0-8 3.582-8 8 0 0.005 0 0.010 0 0.016v-0.001c0.008 4.412 3.587 7.986 8 7.986 4.418 0 8-3.582 8-8 0-0.005 0-0.010 0-0.016v0.001z"></path>
<path fill="#afbbc4" d="M20.789 15.996c-0.006 2.638-2.146 4.774-4.785 4.774-2.643 0-4.785-2.142-4.785-4.785s2.141-4.784 4.783-4.785v0c0.003 0 0.006 0 0.009 0 2.638 0 4.777 2.139 4.777 4.777 0 0.007 0 0.013 0 0.020v-0.001z"></path>
</svg>
