<!-- Generated by IcoMoon.io -->
<svg version="1.1" xmlns="http://www.w3.org/2000/svg" width="32" height="32" viewBox="0 0 32 32">
<title>Mask-Group-17-1</title>
<path fill="#1b606b" d="M29.987 23.069c-1.424-2.815-4.068-4.834-7.217-5.373l-0.059-0.008c-0.102-0.014-0.221-0.023-0.341-0.023-0.48 0-0.929 0.131-1.314 0.36l0.012-0.007c-1.361 0.943-3.047 1.507-4.865 1.507-1.834 0-3.534-0.574-4.93-1.551l0.028 0.018c-0.35-0.241-0.782-0.386-1.249-0.386-0.17 0-0.336 0.019-0.496 0.056l0.015-0.003c-3.218 0.605-5.855 2.667-7.238 5.461l-0.026 0.059c-0.105 0.171-0.168 0.379-0.168 0.601 0 0.266 0.090 0.512 0.241 0.707l-0.002-0.003c2.915 4.609 7.985 7.624 13.759 7.624s10.843-3.016 13.719-7.558l0.039-0.066c0.172-0.208 0.277-0.478 0.277-0.773 0-0.238-0.068-0.46-0.186-0.647l0.003 0.005z"></path>
<path fill="#1b606b" d="M16.003 16.969c0.050 0.001 0.108 0.002 0.167 0.002 4.504 0 8.155-3.651 8.155-8.155s-3.651-8.155-8.155-8.155c-4.44 0-8.051 3.548-8.153 7.963l-0 0.009c-0.001 0.050-0.002 0.109-0.002 0.168 0 4.448 3.555 8.066 7.978 8.167l0.009 0z"></path>
</svg>
