<!-- Generated by IcoMoon.io -->
<svg version="1.1" xmlns="http://www.w3.org/2000/svg" width="32" height="32" viewBox="0 0 32 32">
<title>Mask-Group-6</title>
<path fill="#95ee9d" d="M30.227 22.92c-1.456-2.879-4.161-4.944-7.383-5.495l-0.060-0.009c-0.104-0.014-0.223-0.023-0.345-0.023-0.491 0-0.951 0.134-1.344 0.368l0.012-0.007c-1.392 0.965-3.117 1.542-4.977 1.542-1.876 0-3.615-0.587-5.043-1.587l0.028 0.019c-0.357-0.247-0.799-0.395-1.275-0.395-0.174 0-0.343 0.020-0.505 0.057l0.015-0.003c-3.292 0.619-5.989 2.729-7.404 5.587l-0.027 0.060c-0.107 0.175-0.171 0.387-0.171 0.613 0 0.273 0.092 0.524 0.246 0.724l-0.002-0.003c2.982 4.715 8.167 7.8 14.073 7.8s11.092-3.085 14.033-7.732l0.040-0.068c0.174-0.212 0.28-0.487 0.28-0.786 0-0.246-0.071-0.475-0.194-0.668l0.003 0.005z"></path>
<path fill="#95ee9d" d="M15.925 16.68c0.050 0.001 0.11 0.002 0.169 0.002 4.606 0 8.341-3.734 8.341-8.341s-3.734-8.341-8.341-8.341c-4.54 0-8.233 3.628-8.338 8.143v0.010c-0.001 0.052-0.002 0.112-0.002 0.173 0 4.55 3.637 8.25 8.162 8.354h0.010z"></path>
</svg>
