<!-- Generated by IcoMoon.io -->
<svg version="1.1" xmlns="http://www.w3.org/2000/svg" width="32" height="32" viewBox="0 0 32 32">
<title>Mask-Group-21</title>
<path fill="#3c2c63" d="M30.304 23.005c-1.42-2.807-4.056-4.82-7.197-5.358l-0.059-0.008c-0.101-0.014-0.218-0.022-0.336-0.022-0.479 0-0.927 0.131-1.31 0.358l0.012-0.007c-1.357 0.94-3.039 1.502-4.851 1.502-1.828 0-3.523-0.572-4.915-1.546l0.028 0.018c-0.348-0.24-0.779-0.384-1.244-0.384-0.17 0-0.335 0.019-0.493 0.055l0.015-0.003c-3.209 0.604-5.839 2.66-7.218 5.445l-0.026 0.059c-0.105 0.171-0.167 0.378-0.167 0.599 0 0.266 0.090 0.511 0.24 0.706l-0.002-0.003c2.907 4.596 7.963 7.603 13.72 7.603s10.813-3.007 13.681-7.537l0.039-0.066c0.17-0.207 0.273-0.474 0.273-0.766 0-0.24-0.070-0.464-0.191-0.653l0.003 0.005z"></path>
<path fill="#3c2c63" d="M16.359 16.92c0.049 0.001 0.108 0.002 0.166 0.002 4.491 0 8.132-3.641 8.132-8.132s-3.641-8.132-8.132-8.132c-4.427 0-8.028 3.538-8.13 7.94v0.009c-0.001 0.050-0.002 0.11-0.002 0.169 0 4.436 3.545 8.043 7.956 8.144h0.009z"></path>
</svg>
