<!-- Generated by IcoMoon.io -->
<svg version="1.1" xmlns="http://www.w3.org/2000/svg" width="36" height="32" viewBox="0 0 36 32">
<title>Path-405</title>
<path fill="#ff0" d="M28.498 13.478c-1.114-0.492-2.412-0.778-3.778-0.778-2.085 0-4.014 0.667-5.585 1.8l0.028-0.019c1.749 2.125 2.81 4.873 2.81 7.869 0 2.998-1.062 5.748-2.83 7.895l0.017-0.021c1.542 1.093 3.461 1.747 5.533 1.747 5.323 0 9.638-4.315 9.638-9.638 0-3.947-2.373-7.34-5.77-8.83l-0.062-0.024zM29.52 23.388h-0.024c-0.75-0.004-1.358-0.606-1.369-1.354v-0.001c-0.016-1.402-0.956-2.58-2.238-2.956l-0.022-0.006c-0.577-0.174-0.989-0.7-0.989-1.322 0-0.761 0.617-1.378 1.378-1.378 0.13 0 0.256 0.018 0.375 0.052l-0.010-0.002c2.454 0.714 4.222 2.928 4.253 5.56v0.004c0 0.008 0 0.018 0 0.028 0 0.752-0.603 1.363-1.352 1.376h-0.001zM13.4 13.478c-1.124-0.497-2.434-0.786-3.813-0.786-5.326 0-9.644 4.318-9.644 9.644s4.318 9.644 9.644 9.644c3.948 0 7.342-2.372 8.834-5.769l0.024-0.062c0.506-1.131 0.801-2.45 0.801-3.839 0-3.946-2.381-7.335-5.785-8.81l-0.062-0.024zM14.423 23.388h-0.024c-0.75-0.004-1.357-0.607-1.37-1.354v-0.001c-0.029-1.397-0.963-2.569-2.238-2.955l-0.022-0.006c-0.577-0.174-0.989-0.7-0.989-1.322 0-0.761 0.617-1.378 1.378-1.378 0.13 0 0.256 0.018 0.375 0.052l-0.010-0.002c2.454 0.714 4.222 2.929 4.253 5.561v0.004c0 0.008 0 0.017 0 0.026 0 0.752-0.603 1.363-1.352 1.376h-0.001zM13.008 8.859l3.925-4.247 3.927 4.247c0.251 0.271 0.609 0.44 1.006 0.44 0.362 0 0.69-0.14 0.935-0.369l-0.001 0.001c0.27-0.253 0.438-0.612 0.438-1.009 0-0.362-0.139-0.691-0.367-0.938l0.001 0.001-4.932-5.334c-0.256-0.26-0.612-0.422-1.006-0.422s-0.75 0.161-1.006 0.422v0l-4.932 5.334c-0.248 0.249-0.401 0.592-0.401 0.971 0 0.76 0.616 1.376 1.376 1.376 0.413 0 0.784-0.182 1.037-0.471l0.001-0.002zM31.752 4.101c-2.521-2.534-6.011-4.102-9.868-4.102-0.621 0-1.233 0.041-1.833 0.12l0.071-0.008 15.602 15.667c0.072-0.534 0.113-1.151 0.113-1.777 0-3.864-1.561-7.363-4.086-9.902l0.001 0.001z"></path>
</svg>
