<!-- Generated by IcoMoon.io -->
<svg version="1.1" xmlns="http://www.w3.org/2000/svg" width="30" height="32" viewBox="0 0 30 32">
<title>yidva-chipisa</title>
<path d="M7.256 6.957c-0.002 0.040-0.003 0.086-0.003 0.133 0 0.826 0.391 1.561 0.998 2.030l0.006 0.004c0.716 0.594 1.552 1.074 2.463 1.396l0.057 0.018c2.296 0.81 4.943 1.277 7.7 1.277 0.154 0 0.308-0.001 0.462-0.004h-0.023c0.575-0.033 1.462-0.063 2.344-0.143 1.97-0.153 3.796-0.578 5.504-1.238l-0.132 0.045c0.904-0.334 1.684-0.79 2.368-1.359l-0.013 0.011c0.613-0.475 1.003-1.211 1.003-2.038 0-0.045-0.001-0.090-0.003-0.135v0.006c-0.037-0.72-0.035-1.443 0-2.167 0.001-0.030 0.002-0.066 0.002-0.102 0-0.799-0.371-1.51-0.95-1.973l-0.005-0.004c-0.737-0.626-1.602-1.127-2.549-1.456l-0.056-0.017c-1.681-0.628-3.625-1.046-5.649-1.164l-0.054-0.003c-0.657-0.062-1.422-0.097-2.194-0.097-2.454 0-4.826 0.354-7.067 1.015l0.177-0.045c-1.314 0.353-2.457 0.952-3.432 1.75l0.016-0.013c-0.595 0.469-0.973 1.189-0.973 1.998 0 0.053 0.002 0.105 0.005 0.157v-0.007c0.018 0.317 0.028 0.689 0.028 1.063s-0.010 0.745-0.030 1.114l0.002-0.051z"></path>
<path d="M25.658 24.218c1.3-0.353 2.43-0.952 3.39-1.749l-0.015 0.012c0.59-0.467 0.965-1.183 0.965-1.987 0-0.043-0.001-0.086-0.003-0.129v0.006c-0.037-0.72 0-1.442 0-2.167 0-0.1-0.012-0.198-0.020-0.318-0.427 0.25-0.812 0.5-1.218 0.708-2.453 1.186-5.324 1.918-8.355 2.011l-0.032 0.001c0.093 0.26 0.147 0.56 0.147 0.872 0 0 0 0.001 0 0.001v0c-0.018 0.892-0.434 1.684-1.076 2.208l-0.005 0.004-1.667 1.475c0.334 0.017 0.726 0.026 1.12 0.026 2.413 0 4.744-0.356 6.941-1.019l-0.17 0.044z"></path>
<path d="M29.988 25.624v-0.933c-0.448 0.262-0.833 0.513-1.24 0.72-2.502 1.205-5.431 1.941-8.524 2.020l-0.027 0.001c-0.485 0.030-1.052 0.047-1.623 0.047-1.127 0-2.239-0.066-3.332-0.194l0.133 0.013-2.505 2.23c-0.263 0.237-0.535 0.48-0.833 0.727-0.3 0.247-0.656 0.441-1.043 0.561l-0.022 0.006c1.652 0.596 3.561 0.993 5.547 1.104l0.053 0.002c0.641 0.059 1.387 0.092 2.14 0.092 2.485 0 4.886-0.364 7.151-1.043l-0.176 0.045c1.284-0.354 2.4-0.948 3.348-1.737l-0.014 0.012c0.59-0.462 0.965-1.174 0.965-1.974 0-0.048-0.001-0.096-0.004-0.143v0.007c-0.020-0.518 0.007-1.042 0.007-1.562z"></path>
<path d="M7.351 28.005c0 0.023 0.013 0.047 0.022 0.070v-0.078z"></path>
<path d="M7.396 14.537c0.107-1.017 0.741-1.864 1.621-2.27l0.017-0.007c-0.688-0.327-1.269-0.66-1.821-1.032l0.050 0.031c0 0.857 0.010 1.657 0 2.457-0.001 0.020-0.001 0.043-0.001 0.067 0 0.27 0.049 0.529 0.139 0.768l-0.005-0.015z"></path>
<path d="M28.541 16.055c0.723-0.391 1.244-1.076 1.407-1.891l0.003-0.018c0.092-0.933 0.020-1.882 0.020-2.854-0.057 0.023-0.104 0.046-0.149 0.071l0.006-0.003c-1.406 0.928-3.053 1.628-4.821 2l-0.093 0.016c-1.877 0.446-4.032 0.702-6.246 0.702-1.186 0-2.356-0.073-3.503-0.216l0.137 0.014c-0.807-0.093-1.604-0.213-2.392-0.373 1.133 1 2.27 2 3.377 2.989l2.117 1.877c0.116 0.002 0.253 0.003 0.39 0.003 1.952 0 3.853-0.222 5.678-0.641l-0.17 0.033c1.604-0.314 3.027-0.91 4.283-1.738l-0.045 0.028z"></path>
<path d="M12.135 26.739l5.586-4.966c0.295-0.262 0.295-0.317-0.010-0.587l-3.595-3.184q-1.872-1.667-3.749-3.315c-0.066-0.051-0.15-0.082-0.242-0.082 0 0 0 0 0 0v0c-0.001 0-0.003 0-0.005 0-0.024 0-0.048 0.004-0.070 0.011h0.002c-0.062 0.020-0.11 0.177-0.112 0.273 0 0.572 0 1.145 0 1.717 0 0.052 0 0.103 0 0.155 0 0.387 0 0.773 0 1.167l-0.167 0.015c-0.681 0.040-1.32 0.152-1.93 0.329l0.062-0.015q-0.333 0.092-0.648 0.208c-0.637 0.236-1.183 0.507-1.695 0.828l0.039-0.022c-1.978 1.26-3.495 3.091-4.334 5.26l-0.025 0.074c-0.793 2.002-1.252 4.322-1.252 6.748 0 0.13 0.001 0.26 0.004 0.39v-0.019c0 0.132 0.025 0.242 0.177 0.262h0.040c0.147 0 0.188-0.123 0.225-0.243 0.622-1.915 1.795-3.508 3.33-4.636l0.026-0.018c0.985-0.77 2.14-1.378 3.394-1.759l0.075-0.020q0.375-0.107 0.763-0.182c0.247-0.052 0.558-0.097 0.874-0.127l0.036-0.003c0.12-0.012 0.242-0.015 0.365-0.015 0.21 0 0.422 0.010 0.638 0.010 0 0.11 0 0.19 0 0.272q0 0.387 0 0.773c0 0.667 0 1.342 0 2.014 0 0.11 0.057 0.293 0.12 0.31 0.008 0.001 0.018 0.002 0.027 0.002s0.019-0.001 0.029-0.002h-0.001c0.11-0.006 0.21-0.047 0.289-0.112l-0.001 0.001c0.348-0.288 0.682-0.597 1.020-0.898z"></path>
</svg>
