<svg aria-hidden="true" style="position: absolute; width: 0; height: 0; overflow: hidden;" version="1.1" xmlns="http://www.w3.org/2000/svg" xmlns:xlink="http://www.w3.org/1999/xlink">
<defs>
<symbol id="icon-Component-13--7" viewBox="0 0 36 32">
<path fill="#ff0" style="fill: var(--color1, #ff0)" d="M28.498 13.478c-1.114-0.492-2.412-0.778-3.778-0.778-2.085 0-4.014 0.667-5.585 1.8l0.028-0.019c1.749 2.125 2.81 4.873 2.81 7.869 0 2.998-1.062 5.748-2.83 7.895l0.017-0.021c1.542 1.093 3.461 1.747 5.533 1.747 5.323 0 9.638-4.315 9.638-9.638 0-3.947-2.373-7.34-5.77-8.83l-0.062-0.024zM29.52 23.388h-0.024c-0.75-0.004-1.358-0.606-1.369-1.354v-0.001c-0.016-1.402-0.956-2.58-2.238-2.956l-0.022-0.006c-0.577-0.174-0.989-0.7-0.989-1.322 0-0.761 0.617-1.378 1.378-1.378 0.13 0 0.256 0.018 0.375 0.052l-0.010-0.002c2.454 0.714 4.222 2.928 4.253 5.56l0 0.004c0 0.008 0 0.018 0 0.028 0 0.752-0.603 1.363-1.352 1.376l-0.001 0zM13.4 13.478c-1.124-0.497-2.434-0.786-3.813-0.786-5.326 0-9.644 4.318-9.644 9.644s4.318 9.644 9.644 9.644c3.948 0 7.342-2.372 8.834-5.769l0.024-0.062c0.506-1.131 0.801-2.45 0.801-3.839 0-3.946-2.381-7.335-5.785-8.81l-0.062-0.024zM14.423 23.388h-0.024c-0.75-0.004-1.357-0.607-1.37-1.354v-0.001c-0.029-1.397-0.963-2.569-2.238-2.955l-0.022-0.006c-0.577-0.174-0.989-0.7-0.989-1.322 0-0.761 0.617-1.378 1.378-1.378 0.13 0 0.256 0.018 0.375 0.052l-0.010-0.002c2.454 0.714 4.222 2.929 4.253 5.561l0 0.004c0 0.008 0 0.017 0 0.026 0 0.752-0.603 1.363-1.352 1.376l-0.001 0zM13.008 8.859l3.925-4.247 3.927 4.247c0.251 0.271 0.609 0.44 1.006 0.44 0.362 0 0.69-0.14 0.935-0.369l-0.001 0.001c0.27-0.253 0.438-0.612 0.438-1.009 0-0.362-0.139-0.691-0.367-0.938l0.001 0.001-4.932-5.334c-0.256-0.26-0.612-0.422-1.006-0.422s-0.75 0.161-1.006 0.422l-0 0-4.932 5.334c-0.248 0.249-0.401 0.592-0.401 0.971 0 0.76 0.616 1.376 1.376 1.376 0.413 0 0.784-0.182 1.037-0.471l0.001-0.002zM31.752 4.101c-2.521-2.534-6.011-4.102-9.868-4.102-0.621 0-1.233 0.041-1.833 0.12l0.071-0.008 15.602 15.667c0.072-0.534 0.113-1.151 0.113-1.777 0-3.864-1.561-7.363-4.086-9.902l0.001 0.001z"></path>
</symbol>
<symbol id="icon-Component-20" viewBox="0 0 40 32">
<path fill="#ff0" style="fill: var(--color1, #ff0)" d="M5.371 2.281l-5.371-0.022v0.392c0.056 0.396 0.116 0.789 0.161 1.185 0.24 1.884 0.482 3.768 0.711 5.654 0.144 1.365 0.883 2.532 1.949 3.252l0.016 0.010c0.728 0.523 1.638 0.837 2.621 0.837 0.242 0 0.479-0.019 0.71-0.055l-0.026 0.003v-11.254z"></path>
<path fill="#ff0" style="fill: var(--color1, #ff0)" d="M40.225 2.31q-2.846 0-5.691 0c-0.096 0.008-0.183 0.022-0.268 0.044l0.011-0.002v11.183c0.203 0.032 0.438 0.050 0.676 0.050 2.187 0 4.018-1.522 4.493-3.564l0.006-0.031c0.17-0.867 0.243-1.751 0.352-2.629 0.129-1.019 0.246-2.040 0.376-3.055 0.071-0.551 0.161-1.1 0.24-1.65v-0.322c-0.056-0.012-0.122-0.021-0.19-0.026l-0.004-0z"></path>
<path fill="#ff0" style="fill: var(--color1, #ff0)" d="M31.751 0h-23.082c0 0.127-0.016 0.228-0.016 0.331q0 5.457 0 10.913c-0.001 0.046-0.001 0.099-0.001 0.153 0 0.538 0.040 1.067 0.118 1.583l-0.007-0.058c0.368 2.42 1.486 4.529 3.105 6.134l0.001 0.001c2.085 2.161 5.006 3.502 8.241 3.502 0.832 0 1.643-0.089 2.424-0.257l-0.075 0.014c2.82-0.503 5.22-2.011 6.867-4.132l0.019-0.025c1.464-1.752 2.367-4.015 2.411-6.489l0-0.010c0.043-3.794 0.016-7.59 0.018-11.384-0.003-0.087-0.014-0.175-0.023-0.277z"></path>
<path fill="#ff0" style="fill: var(--color1, #ff0)" d="M24.855 25.379c-0.035-0.207-0.214-0.363-0.428-0.363-0.026 0-0.051 0.002-0.076 0.007l0.003-0q-4.129 0.018-8.257 0c-0.022-0.004-0.048-0.006-0.074-0.006-0.24 0-0.438 0.18-0.467 0.412l-0 0.002c-0.368 1.177-0.764 2.344-1.156 3.537h-1.619v3.034h14.865v-3.040h-1.629c-0.394-1.209-0.789-2.394-1.161-3.582z"></path>
</symbol>
<symbol id="icon-Component-13--71" viewBox="0 0 36 32">
<path fill="#ff0" style="fill: var(--color1, #ff0)" d="M28.498 13.478c-1.114-0.492-2.412-0.778-3.778-0.778-2.085 0-4.014 0.667-5.585 1.8l0.028-0.019c1.749 2.125 2.81 4.873 2.81 7.869 0 2.998-1.062 5.748-2.83 7.895l0.017-0.021c1.542 1.093 3.461 1.747 5.533 1.747 5.323 0 9.638-4.315 9.638-9.638 0-3.947-2.373-7.34-5.77-8.83l-0.062-0.024zM29.52 23.388h-0.024c-0.75-0.004-1.358-0.606-1.369-1.354v-0.001c-0.016-1.402-0.956-2.58-2.238-2.956l-0.022-0.006c-0.577-0.174-0.989-0.7-0.989-1.322 0-0.761 0.617-1.378 1.378-1.378 0.13 0 0.256 0.018 0.375 0.052l-0.010-0.002c2.454 0.714 4.222 2.928 4.253 5.56v0.004c0 0.008 0 0.018 0 0.028 0 0.752-0.603 1.363-1.352 1.376h-0.001zM13.4 13.478c-1.124-0.497-2.434-0.786-3.813-0.786-5.326 0-9.644 4.318-9.644 9.644s4.318 9.644 9.644 9.644c3.948 0 7.342-2.372 8.834-5.769l0.024-0.062c0.506-1.131 0.801-2.45 0.801-3.839 0-3.946-2.381-7.335-5.785-8.81l-0.062-0.024zM14.423 23.388h-0.024c-0.75-0.004-1.357-0.607-1.37-1.354v-0.001c-0.029-1.397-0.963-2.569-2.238-2.955l-0.022-0.006c-0.577-0.174-0.989-0.7-0.989-1.322 0-0.761 0.617-1.378 1.378-1.378 0.13 0 0.256 0.018 0.375 0.052l-0.010-0.002c2.454 0.714 4.222 2.929 4.253 5.561v0.004c0 0.008 0 0.017 0 0.026 0 0.752-0.603 1.363-1.352 1.376h-0.001zM13.008 8.859l3.925-4.247 3.927 4.247c0.251 0.271 0.609 0.44 1.006 0.44 0.362 0 0.69-0.14 0.935-0.369l-0.001 0.001c0.27-0.253 0.438-0.612 0.438-1.009 0-0.362-0.139-0.691-0.367-0.938l0.001 0.001-4.932-5.334c-0.256-0.26-0.612-0.422-1.006-0.422s-0.75 0.161-1.006 0.422v0l-4.932 5.334c-0.248 0.249-0.401 0.592-0.401 0.971 0 0.76 0.616 1.376 1.376 1.376 0.413 0 0.784-0.182 1.037-0.471l0.001-0.002zM31.752 4.101c-2.521-2.534-6.011-4.102-9.868-4.102-0.621 0-1.233 0.041-1.833 0.12l0.071-0.008 15.602 15.667c0.072-0.534 0.113-1.151 0.113-1.777 0-3.864-1.561-7.363-4.086-9.902l0.001 0.001z"></path>
</symbol>
<symbol id="icon-Component-201" viewBox="0 0 40 32">
<path fill="#ff0" style="fill: var(--color1, #ff0)" d="M5.371 2.281l-5.371-0.022v0.392c0.056 0.396 0.116 0.789 0.161 1.185 0.24 1.884 0.482 3.768 0.711 5.654 0.144 1.365 0.883 2.532 1.949 3.252l0.016 0.010c0.728 0.523 1.638 0.837 2.621 0.837 0.242 0 0.479-0.019 0.71-0.055l-0.026 0.003v-11.254z"></path>
<path fill="#ff0" style="fill: var(--color1, #ff0)" d="M40.225 2.31q-2.846 0-5.691 0c-0.096 0.008-0.183 0.022-0.268 0.044l0.011-0.002v11.183c0.203 0.032 0.438 0.050 0.676 0.050 2.187 0 4.018-1.522 4.493-3.564l0.006-0.031c0.17-0.867 0.243-1.751 0.352-2.629 0.129-1.019 0.246-2.040 0.376-3.055 0.071-0.551 0.161-1.1 0.24-1.65v-0.322c-0.056-0.012-0.122-0.021-0.19-0.026h-0.004z"></path>
<path fill="#ff0" style="fill: var(--color1, #ff0)" d="M31.751 0h-23.082c0 0.127-0.016 0.228-0.016 0.331q0 5.457 0 10.913c-0.001 0.046-0.001 0.099-0.001 0.153 0 0.538 0.040 1.067 0.118 1.583l-0.007-0.058c0.368 2.42 1.486 4.529 3.105 6.134l0.001 0.001c2.085 2.161 5.006 3.502 8.241 3.502 0.832 0 1.643-0.089 2.424-0.257l-0.075 0.014c2.82-0.503 5.22-2.011 6.867-4.132l0.019-0.025c1.464-1.752 2.367-4.015 2.411-6.489v-0.010c0.043-3.794 0.016-7.59 0.018-11.384-0.003-0.087-0.014-0.175-0.023-0.277z"></path>
<path fill="#ff0" style="fill: var(--color1, #ff0)" d="M24.855 25.379c-0.035-0.207-0.214-0.363-0.428-0.363-0.026 0-0.051 0.002-0.076 0.007h0.003q-4.129 0.018-8.257 0c-0.022-0.004-0.048-0.006-0.074-0.006-0.24 0-0.438 0.18-0.467 0.412v0.002c-0.368 1.177-0.764 2.344-1.156 3.537h-1.619v3.034h14.865v-3.040h-1.629c-0.394-1.209-0.789-2.394-1.161-3.582z"></path>
</symbol>
<symbol id="icon-enlarge" viewBox="0 0 32 32">
<path d="M32 0h-13l5 5-6 6 3 3 6-6 5 5z"></path>
<path d="M32 32v-13l-5 5-6-6-3 3 6 6-5 5z"></path>
<path d="M0 32h13l-5-5 6-6-3-3-6 6-5-5z"></path>
<path d="M0 0v13l5-5 6 6 3-3-6-6 5-5z"></path>
</symbol>
<symbol id="icon-enlarge1" viewBox="0 0 32 32">
<path d="M32 0h-13l5 5-6 6 3 3 6-6 5 5z"></path>
<path d="M32 32v-13l-5 5-6-6-3 3 6 6-5 5z"></path>
<path d="M0 32h13l-5-5 6-6-3-3-6 6-5-5z"></path>
<path d="M0 0v13l5-5 6 6 3-3-6-6 5-5z"></path>
</symbol>
<symbol id="icon-enlarge11" viewBox="0 0 32 32">
<path d="M32 0h-13l5 5-6 6 3 3 6-6 5 5z"></path>
<path d="M32 32v-13l-5 5-6-6-3 3 6 6-5 5z"></path>
<path d="M0 32h13l-5-5 6-6-3-3-6 6-5-5z"></path>
<path d="M0 0v13l5-5 6 6 3-3-6-6 5-5z"></path>
</symbol>
<symbol id="icon-Group-167" viewBox="0 0 32 32">
<path fill="#ff0" style="fill: var(--color1, #ff0)" d="M22.251 10.916c-2.458-0.042-4.766-0.641-6.818-1.674l0.091 0.041c-0.828-0.453-1.535-1.009-2.139-1.662l-0.005-0.006c-0.562-0.572-0.91-1.356-0.91-2.222 0-0.858 0.341-1.637 0.895-2.208l-0.001 0.001c0.81-0.947 1.854-1.67 3.043-2.084l0.049-0.015c1.7-0.692 3.672-1.093 5.737-1.093 2.392 0 4.658 0.538 6.685 1.5l-0.095-0.040c0.833 0.409 1.544 0.933 2.147 1.561l0.002 0.003c0.654 0.597 1.062 1.453 1.062 2.404 0 0.946-0.404 1.797-1.048 2.391l-0.002 0.002c-1.212 1.236-2.789 2.111-4.557 2.448l-0.054 0.009c-1.346 0.304-2.724 0.436-4.085 0.643z"></path>
<path fill="#ff0" style="fill: var(--color1, #ff0)" d="M9.74 13.667c2.343 0.005 4.56 0.539 6.541 1.487l-0.092-0.040c0.866 0.443 1.609 0.983 2.256 1.62l-0.001-0.001c0.658 0.597 1.070 1.455 1.070 2.41 0 0.942-0.401 1.791-1.043 2.384l-0.002 0.002c-1.085 1.11-2.469 1.923-4.022 2.307l-0.058 0.012c-1.385 0.429-2.977 0.676-4.627 0.676-2.056 0-4.022-0.384-5.831-1.084l0.11 0.038c-1.159-0.415-2.146-1.062-2.948-1.891l-0.002-0.002c-0.667-0.61-1.083-1.483-1.083-2.455 0-0.967 0.413-1.837 1.072-2.444l0.002-0.002c1.33-1.308 3.058-2.216 4.985-2.526l0.053-0.007c1.192-0.245 2.413-0.329 3.619-0.486z"></path>
<path fill="#ff0" style="fill: var(--color1, #ff0)" d="M0.089 25.325c0.848 1.82 2.445 3.169 4.385 3.663l0.046 0.010c1.56 0.557 3.36 0.878 5.235 0.878s3.675-0.322 5.347-0.913l-0.112 0.035c1.984-0.502 3.582-1.845 4.419-3.619l0.017-0.041c0.076 0.293 0.12 0.629 0.12 0.975 0 1.264-0.584 2.392-1.497 3.129l-0.008 0.006c-1.376 1.139-3.080 1.93-4.949 2.216l-0.057 0.007c-0.984 0.22-2.115 0.347-3.275 0.347-2.373 0-4.623-0.528-6.639-1.474l0.096 0.040c-0.517-0.256-0.961-0.531-1.375-0.843l0.022 0.016c-1.14-0.759-1.882-2.038-1.882-3.491 0-0.334 0.039-0.659 0.113-0.971l-0.006 0.028z"></path>
<path fill="#ff0" style="fill: var(--color1, #ff0)" d="M0.072 21.656c1.342 2.694 3.793 3.581 6.433 4.131 0.987 0.219 2.121 0.345 3.284 0.345 1.496 0 2.943-0.208 4.314-0.596l-0.111 0.027c2.4-0.398 4.382-1.895 5.441-3.947l0.020-0.042c0.057 0.265 0.090 0.57 0.090 0.883 0 1.657-0.919 3.099-2.275 3.844l-0.023 0.011c-1.64 1.026-3.601 1.692-5.705 1.842l-0.040 0.002c-0.564 0.076-1.216 0.119-1.879 0.119-2.38 0-4.631-0.558-6.627-1.55l0.087 0.039c-0.697-0.376-1.297-0.807-1.838-1.302l0.007 0.006c-0.787-0.728-1.278-1.766-1.278-2.918 0-0.318 0.037-0.627 0.108-0.923l-0.005 0.027z"></path>
<path fill="#ff0" style="fill: var(--color1, #ff0)" d="M31.928 7.918c0.058 0.261 0.092 0.56 0.092 0.867 0 1.233-0.539 2.341-1.394 3.1l-0.004 0.004c-1.237 1.061-2.756 1.829-4.429 2.179l-0.065 0.011c-1.152 0.293-2.475 0.461-3.838 0.461-1.251 0-2.468-0.142-3.638-0.41l0.109 0.021c-0.37-0.1-0.69-0.221-0.993-0.369l0.033 0.014c-0.819-0.352-1.615-0.765-2.45-1.064-1.676-0.519-2.873-2.056-2.873-3.872 0-0.041 0.001-0.082 0.002-0.122v0.006c0-0.263 0-0.526 0-0.795 0.053 0.012 0.107 0.009 0.116 0.027 0.988 1.933 2.789 3.33 4.939 3.751l0.045 0.007c1.392 0.434 2.992 0.684 4.651 0.684 1.918 0 3.758-0.334 5.465-0.948l-0.113 0.035c1.909-0.563 3.45-1.856 4.328-3.548l0.019-0.039z"></path>
<path fill="#ff0" style="fill: var(--color1, #ff0)" d="M20.468 16.060c0.197 0.011 0.371 0.018 0.546 0.029 0.4 0.037 0.865 0.058 1.334 0.058 2.246 0 4.38-0.482 6.303-1.348l-0.097 0.039c1.53-0.601 2.724-1.775 3.337-3.252l0.014-0.039c0.072 0.29 0.113 0.623 0.113 0.966 0 1.233-0.534 2.341-1.384 3.106l-0.004 0.003c-1.218 1.091-2.745 1.862-4.433 2.168l-0.056 0.008c-1.424 0.271-2.892 0.301-4.342 0.451-0.349 0.033-0.52-0.095-0.628-0.471-0.238-0.695-0.476-1.263-0.745-1.813l0.041 0.094z"></path>
<path fill="#ff0" style="fill: var(--color1, #ff0)" d="M31.901 19.034c0.064 0.28 0.1 0.602 0.1 0.932 0 1.622-0.878 3.038-2.184 3.801l-0.021 0.011c-2.027 1.219-4.474 1.94-7.089 1.94-0.448 0-0.891-0.021-1.328-0.063l0.056 0.004c-0.053-0.588-0.131-1.185-0.134-1.781 0-0.095 0.337-0.275 0.516-0.272 0.187 0.008 0.407 0.013 0.627 0.013 1.557 0 3.057-0.239 4.468-0.682l-0.105 0.029c1.075-0.366 1.991-0.778 2.86-1.264l-0.086 0.044c1.080-0.587 1.901-1.535 2.31-2.679l0.011-0.034z"></path>
<path fill="#ff0" style="fill: var(--color1, #ff0)" d="M21.373 22.11c0-0.549 0.012-0.872 0-1.194s-0.057-0.639-0.096-1.040c0.226 0 0.418 0 0.61 0 0.152 0.005 0.331 0.009 0.51 0.009 2.178 0 4.249-0.457 6.122-1.28l-0.098 0.038c1.586-0.594 2.828-1.791 3.468-3.305l0.015-0.039c0.072 0.291 0.114 0.625 0.114 0.969 0 1.347-0.637 2.546-1.625 3.311l-0.010 0.007c-1.349 1.075-3.004 1.823-4.814 2.098l-0.057 0.007c-1.332 0.218-2.688 0.277-4.14 0.419z"></path>
</symbol>
<symbol id="icon-Group-194" viewBox="0 0 32 32">
<path fill="#b2a2d8" style="fill: var(--color2, #b2a2d8)" d="M27.442 4.611c1.006-1.009 1.985-2 2.98-2.976 0.333-0.326 0.657-0.835 1.195-0.62 0.573 0.227 0.444 0.83 0.444 1.318q0 4.191 0 8.381c0 0.933-0.343 1.277-1.287 1.287q-4.317 0-8.632 0c-0.032 0.002-0.068 0.002-0.106 0.002-0.139 0-0.274-0.012-0.406-0.034l0.014 0.002c-0.644-0.137-0.82-0.586-0.41-1.099 0.347-0.406 0.697-0.775 1.066-1.125l0.007-0.006c0.749-0.753 1.502-1.502 2.298-2.292-1.123-1.1-2.472-1.975-3.97-2.548l-0.079-0.027c-1.34-0.561-2.897-0.886-4.53-0.886-5.922 0-10.843 4.283-11.834 9.921l-0.011 0.072c-0.103 0.592-0.162 1.274-0.162 1.969 0 5.795 4.080 10.636 9.524 11.81l0.079 0.014c0.739 0.162 1.588 0.255 2.458 0.255 5.369 0 9.912-3.541 11.42-8.415l0.023-0.085c0.218-0.868 0.984-1.503 1.901-1.519h0.002c0.024-0.001 0.053-0.002 0.082-0.002 0.85 0 1.57 0.561 1.807 1.334l0.004 0.013c0.055 0.198 0.086 0.425 0.086 0.659 0 0.262-0.039 0.515-0.112 0.754l0.005-0.018c-1.685 5.797-6.542 10.121-12.521 11.004l-0.084 0.010c-0.826 0.152-1.777 0.239-2.748 0.239-7.726 0-14.167-5.5-15.622-12.797l-0.017-0.102c-0.186-0.919-0.293-1.974-0.293-3.055 0-7.893 5.69-14.457 13.192-15.813l0.098-0.015c0.822-0.147 1.767-0.231 2.733-0.231 4.327 0 8.259 1.691 11.171 4.448l-0.007-0.007c0.064 0.043 0.116 0.077 0.242 0.178z"></path>
<path fill="#b2a2d8" style="fill: var(--color2, #b2a2d8)" d="M16.1 16.001c1.27 0 2.515 0 3.762 0 0.052-0.005 0.111-0.007 0.172-0.007 1.101 0 1.996 0.881 2.019 1.977v0.002c0 0.004 0 0.009 0 0.015 0 1.116-0.905 2.021-2.021 2.021-0.063 0-0.126-0.003-0.188-0.009l0.008 0.001q-2.811 0-5.624 0c-0.056 0.006-0.122 0.009-0.188 0.009-1.106 0-2.002-0.896-2.002-2.002 0-0.061 0.003-0.122 0.008-0.182l-0.001 0.008q0-2.843 0-5.686c-0.003-0.041-0.005-0.089-0.005-0.137 0-1.109 0.899-2.008 2.008-2.008 0.002 0 0.005 0 0.007 0v0c1.104 0.012 1.993 0.91 1.993 2.015 0 0.057-0.002 0.113-0.007 0.168v-0.007c0 1.208 0 2.416 0 3.624 0.017 0.078 0.037 0.145 0.061 0.21l-0.003-0.010z"></path>
</symbol>
<symbol id="icon-knmopkebi" viewBox="0 0 32 32">
<path fill="#afbbc4" style="fill: var(--color3, #afbbc4)" d="M15.981 31.998c-1.521 0-1.748-0.163-2.279-1.627-0.112-0.311-0.245-0.606-0.339-0.918-0.488-1.448-1.833-2.472-3.417-2.472-0.626 0-1.215 0.16-1.728 0.441l0.019-0.009c-0.384 0.219-0.795 0.388-1.196 0.579-0.129 0.079-0.277 0.145-0.434 0.192l-0.013 0.003c-1.288 0.231-1.734-0.917-2.47-1.553-0.234-0.228-0.38-0.547-0.38-0.899 0-0.242 0.068-0.468 0.187-0.659l-0.003 0.005c0.314-0.643 0.65-1.454 0.941-2.287l0.052-0.169c0.040-0.198 0.063-0.426 0.063-0.658 0-1.256-0.665-2.358-1.662-2.971l-0.015-0.009c-0.575-0.273-1.307-0.565-2.057-0.818l-0.155-0.045c-0.633-0.184-1.088-0.758-1.088-1.439 0-0.009 0-0.018 0-0.027v0.001c0-0.186-0.008-0.374-0.009-0.561-0.008-1.721 0.093-1.922 1.754-2.458 1.634-0.527 2.973-1.33 3.18-3.2 0.006-0.093 0.010-0.202 0.010-0.312 0-0.564-0.093-1.107-0.264-1.613l0.010 0.035c-0.25-0.676-0.512-1.243-0.811-1.785l0.034 0.067c-0.099-0.175-0.157-0.385-0.157-0.608 0-0.369 0.159-0.701 0.413-0.93l0.001-0.001c1.777-1.749 1.543-2.038 3.944-0.802 0.518 0.319 1.146 0.508 1.817 0.508 0.854 0 1.638-0.306 2.246-0.814l-0.006 0.005c0.464-0.427 0.842-0.94 1.112-1.513l0.013-0.030c0.207-0.452 0.421-1.019 0.602-1.6l0.029-0.109c0.167-0.544 0.665-0.932 1.253-0.932 0.006 0 0.013 0 0.019 0h-0.001c2.486-0.034 2.582-0.214 3.324 2.175 0.374 1.605 1.791 2.782 3.484 2.782 0.47 0 0.918-0.091 1.329-0.255l-0.024 0.009c0.718-0.277 1.304-0.549 1.872-0.853l-0.090 0.044c0.192-0.113 0.423-0.179 0.669-0.179 0.395 0 0.75 0.171 0.995 0.444l0.1 0.1c1.454 1.485 1.922 1.409 0.676 3.745-0.324 0.542-0.515 1.196-0.515 1.894 0 0.749 0.22 1.447 0.6 2.032l-0.009-0.015c0.449 0.65 1.089 1.14 1.839 1.391l0.026 0.007c0.51 0.227 1.053 0.376 1.575 0.576 0.552 0.186 0.943 0.7 0.943 1.304 0 0.011 0 0.022 0 0.033v-0.002c0.101 2.413 0.095 2.503-2.189 3.253-1.505 0.385-2.624 1.663-2.767 3.223l-0.001 0.014c-0.003 0.058-0.005 0.127-0.005 0.196 0 0.511 0.098 0.999 0.275 1.447l-0.009-0.027c0.271 0.698 0.532 1.263 0.822 1.812l-0.045-0.093c0.114 0.195 0.182 0.428 0.182 0.678 0 0.395-0.169 0.751-0.439 0.999l-0.001 0.001c-1.83 1.835-1.602 1.897-3.899 0.746-0.52-0.309-1.147-0.492-1.816-0.492-0.805 0-1.547 0.264-2.147 0.71l0.010-0.007c-0.394 0.284-0.72 0.636-0.965 1.042l-0.009 0.016c-0.233 0.44-0.444 0.955-0.605 1.491l-0.016 0.062c-0.553 1.529-0.771 1.689-2.383 1.687zM23.997 15.968c-0.008-4.412-3.587-7.986-8-7.986-4.418 0-8 3.582-8 8 0 0.005 0 0.010 0 0.016v-0.001c0.008 4.412 3.587 7.986 8 7.986 4.418 0 8-3.582 8-8 0-0.005 0-0.010 0-0.016v0.001z"></path>
<path fill="#afbbc4" style="fill: var(--color3, #afbbc4)" d="M20.789 15.996c-0.006 2.638-2.146 4.774-4.785 4.774-2.643 0-4.785-2.142-4.785-4.785s2.141-4.784 4.783-4.785v0c0.003 0 0.006 0 0.009 0 2.638 0 4.777 2.139 4.777 4.777 0 0.007 0 0.013 0 0.020v-0.001z"></path>
</symbol>
<symbol id="icon-Mask-Group-17" viewBox="0 0 33 32">
<path fill="#17ff4d" style="fill: var(--color4, #17ff4d)" d="M30.599 23.069c-1.424-2.815-4.068-4.834-7.217-5.373l-0.059-0.008c-0.102-0.014-0.221-0.023-0.341-0.023-0.48 0-0.929 0.131-1.314 0.36l0.012-0.007c-1.361 0.943-3.047 1.507-4.865 1.507-1.834 0-3.534-0.574-4.93-1.551l0.028 0.018c-0.35-0.241-0.782-0.386-1.249-0.386-0.17 0-0.336 0.019-0.496 0.056l0.015-0.003c-3.218 0.605-5.855 2.667-7.238 5.461l-0.026 0.059c-0.105 0.171-0.168 0.379-0.168 0.601 0 0.266 0.090 0.512 0.241 0.707l-0.002-0.003c2.915 4.609 7.985 7.624 13.759 7.624s10.843-3.016 13.719-7.558l0.039-0.066c0.172-0.208 0.277-0.478 0.277-0.773 0-0.238-0.068-0.46-0.186-0.647l0.003 0.005z"></path>
<path fill="#17ff4d" style="fill: var(--color4, #17ff4d)" d="M16.615 16.969c0.050 0.001 0.108 0.002 0.167 0.002 4.504 0 8.155-3.651 8.155-8.155s-3.651-8.155-8.155-8.155c-4.44 0-8.051 3.548-8.153 7.963l-0 0.009c-0.001 0.050-0.002 0.109-0.002 0.168 0 4.448 3.555 8.066 7.978 8.167l0.009 0z"></path>
</symbol>
<symbol id="icon-Mask-Group-17-1" viewBox="0 0 32 32">
<path fill="#1b606b" style="fill: var(--color5, #1b606b)" d="M29.987 23.069c-1.424-2.815-4.068-4.834-7.217-5.373l-0.059-0.008c-0.102-0.014-0.221-0.023-0.341-0.023-0.48 0-0.929 0.131-1.314 0.36l0.012-0.007c-1.361 0.943-3.047 1.507-4.865 1.507-1.834 0-3.534-0.574-4.93-1.551l0.028 0.018c-0.35-0.241-0.782-0.386-1.249-0.386-0.17 0-0.336 0.019-0.496 0.056l0.015-0.003c-3.218 0.605-5.855 2.667-7.238 5.461l-0.026 0.059c-0.105 0.171-0.168 0.379-0.168 0.601 0 0.266 0.090 0.512 0.241 0.707l-0.002-0.003c2.915 4.609 7.985 7.624 13.759 7.624s10.843-3.016 13.719-7.558l0.039-0.066c0.172-0.208 0.277-0.478 0.277-0.773 0-0.238-0.068-0.46-0.186-0.647l0.003 0.005z"></path>
<path fill="#1b606b" style="fill: var(--color5, #1b606b)" d="M16.003 16.969c0.050 0.001 0.108 0.002 0.167 0.002 4.504 0 8.155-3.651 8.155-8.155s-3.651-8.155-8.155-8.155c-4.44 0-8.051 3.548-8.153 7.963l-0 0.009c-0.001 0.050-0.002 0.109-0.002 0.168 0 4.448 3.555 8.066 7.978 8.167l0.009 0z"></path>
</symbol>
<symbol id="icon-Mask-Group-5" viewBox="0 0 32 32">
<path fill="#95ee9d" style="fill: var(--color6, #95ee9d)" d="M30.227 22.92c-1.456-2.879-4.161-4.944-7.383-5.495l-0.060-0.009c-0.104-0.014-0.223-0.023-0.345-0.023-0.491 0-0.951 0.134-1.344 0.368l0.012-0.007c-1.392 0.965-3.117 1.542-4.977 1.542-1.876 0-3.615-0.587-5.043-1.587l0.028 0.019c-0.357-0.247-0.799-0.395-1.275-0.395-0.174 0-0.343 0.020-0.505 0.057l0.015-0.003c-3.292 0.619-5.989 2.729-7.404 5.587l-0.027 0.060c-0.107 0.175-0.171 0.387-0.171 0.613 0 0.273 0.092 0.524 0.246 0.724l-0.002-0.003c2.982 4.715 8.167 7.8 14.073 7.8s11.092-3.085 14.033-7.732l0.040-0.068c0.174-0.212 0.28-0.487 0.28-0.786 0-0.246-0.071-0.475-0.194-0.668l0.003 0.005z"></path>
<path fill="#95ee9d" style="fill: var(--color6, #95ee9d)" d="M15.925 16.68c0.050 0.001 0.11 0.002 0.169 0.002 4.606 0 8.341-3.734 8.341-8.341s-3.734-8.341-8.341-8.341c-4.54 0-8.233 3.628-8.338 8.143v0.010c-0.001 0.052-0.002 0.112-0.002 0.173 0 4.55 3.637 8.25 8.162 8.354h0.010z"></path>
</symbol>
<symbol id="icon-Mask-Group-6" viewBox="0 0 32 32">
<path fill="#95ee9d" style="fill: var(--color6, #95ee9d)" d="M30.227 22.92c-1.456-2.879-4.161-4.944-7.383-5.495l-0.060-0.009c-0.104-0.014-0.223-0.023-0.345-0.023-0.491 0-0.951 0.134-1.344 0.368l0.012-0.007c-1.392 0.965-3.117 1.542-4.977 1.542-1.876 0-3.615-0.587-5.043-1.587l0.028 0.019c-0.357-0.247-0.799-0.395-1.275-0.395-0.174 0-0.343 0.020-0.505 0.057l0.015-0.003c-3.292 0.619-5.989 2.729-7.404 5.587l-0.027 0.060c-0.107 0.175-0.171 0.387-0.171 0.613 0 0.273 0.092 0.524 0.246 0.724l-0.002-0.003c2.982 4.715 8.167 7.8 14.073 7.8s11.092-3.085 14.033-7.732l0.040-0.068c0.174-0.212 0.28-0.487 0.28-0.786 0-0.246-0.071-0.475-0.194-0.668l0.003 0.005z"></path>
<path fill="#95ee9d" style="fill: var(--color6, #95ee9d)" d="M15.925 16.68c0.050 0.001 0.11 0.002 0.169 0.002 4.606 0 8.341-3.734 8.341-8.341s-3.734-8.341-8.341-8.341c-4.54 0-8.233 3.628-8.338 8.143v0.010c-0.001 0.052-0.002 0.112-0.002 0.173 0 4.55 3.637 8.25 8.162 8.354h0.010z"></path>
</symbol>
<symbol id="icon-Mask-Group-171" viewBox="0 0 33 32">
<path fill="#17ff4d" style="fill: var(--color4, #17ff4d)" d="M30.599 23.069c-1.424-2.815-4.068-4.834-7.217-5.373l-0.059-0.008c-0.102-0.014-0.221-0.023-0.341-0.023-0.48 0-0.929 0.131-1.314 0.36l0.012-0.007c-1.361 0.943-3.047 1.507-4.865 1.507-1.834 0-3.534-0.574-4.93-1.551l0.028 0.018c-0.35-0.241-0.782-0.386-1.249-0.386-0.17 0-0.336 0.019-0.496 0.056l0.015-0.003c-3.218 0.605-5.855 2.667-7.238 5.461l-0.026 0.059c-0.105 0.171-0.168 0.379-0.168 0.601 0 0.266 0.090 0.512 0.241 0.707l-0.002-0.003c2.915 4.609 7.985 7.624 13.759 7.624s10.843-3.016 13.719-7.558l0.039-0.066c0.172-0.208 0.277-0.478 0.277-0.773 0-0.238-0.068-0.46-0.186-0.647l0.003 0.005z"></path>
<path fill="#17ff4d" style="fill: var(--color4, #17ff4d)" d="M16.615 16.969c0.050 0.001 0.108 0.002 0.167 0.002 4.504 0 8.155-3.651 8.155-8.155s-3.651-8.155-8.155-8.155c-4.44 0-8.051 3.548-8.153 7.963v0.009c-0.001 0.050-0.002 0.109-0.002 0.168 0 4.448 3.555 8.066 7.978 8.167h0.009z"></path>
</symbol>
<symbol id="icon-Mask-Group-17-11" viewBox="0 0 32 32">
<path fill="#1b606b" style="fill: var(--color5, #1b606b)" d="M29.987 23.069c-1.424-2.815-4.068-4.834-7.217-5.373l-0.059-0.008c-0.102-0.014-0.221-0.023-0.341-0.023-0.48 0-0.929 0.131-1.314 0.36l0.012-0.007c-1.361 0.943-3.047 1.507-4.865 1.507-1.834 0-3.534-0.574-4.93-1.551l0.028 0.018c-0.35-0.241-0.782-0.386-1.249-0.386-0.17 0-0.336 0.019-0.496 0.056l0.015-0.003c-3.218 0.605-5.855 2.667-7.238 5.461l-0.026 0.059c-0.105 0.171-0.168 0.379-0.168 0.601 0 0.266 0.090 0.512 0.241 0.707l-0.002-0.003c2.915 4.609 7.985 7.624 13.759 7.624s10.843-3.016 13.719-7.558l0.039-0.066c0.172-0.208 0.277-0.478 0.277-0.773 0-0.238-0.068-0.46-0.186-0.647l0.003 0.005z"></path>
<path fill="#1b606b" style="fill: var(--color5, #1b606b)" d="M16.003 16.969c0.050 0.001 0.108 0.002 0.167 0.002 4.504 0 8.155-3.651 8.155-8.155s-3.651-8.155-8.155-8.155c-4.44 0-8.051 3.548-8.153 7.963v0.009c-0.001 0.050-0.002 0.109-0.002 0.168 0 4.448 3.555 8.066 7.978 8.167h0.009z"></path>
</symbol>
<symbol id="icon-Mask-Group-17-111" viewBox="0 0 32 32">
<path fill="#1b606b" style="fill: var(--color5, #1b606b)" d="M29.987 23.069c-1.424-2.815-4.068-4.834-7.217-5.373l-0.059-0.008c-0.102-0.014-0.221-0.023-0.341-0.023-0.48 0-0.929 0.131-1.314 0.36l0.012-0.007c-1.361 0.943-3.047 1.507-4.865 1.507-1.834 0-3.534-0.574-4.93-1.551l0.028 0.018c-0.35-0.241-0.782-0.386-1.249-0.386-0.17 0-0.336 0.019-0.496 0.056l0.015-0.003c-3.218 0.605-5.855 2.667-7.238 5.461l-0.026 0.059c-0.105 0.171-0.168 0.379-0.168 0.601 0 0.266 0.090 0.512 0.241 0.707l-0.002-0.003c2.915 4.609 7.985 7.624 13.759 7.624s10.843-3.016 13.719-7.558l0.039-0.066c0.172-0.208 0.277-0.478 0.277-0.773 0-0.238-0.068-0.46-0.186-0.647l0.003 0.005z"></path>
<path fill="#1b606b" style="fill: var(--color5, #1b606b)" d="M16.003 16.969c0.050 0.001 0.108 0.002 0.167 0.002 4.504 0 8.155-3.651 8.155-8.155s-3.651-8.155-8.155-8.155c-4.44 0-8.051 3.548-8.153 7.963v0.009c-0.001 0.050-0.002 0.109-0.002 0.168 0 4.448 3.555 8.066 7.978 8.167h0.009z"></path>
</symbol>
<symbol id="icon-Mask-Group-21" viewBox="0 0 32 32">
<path fill="#3c2c63" style="fill: var(--color7, #3c2c63)" d="M30.304 23.005c-1.42-2.807-4.056-4.82-7.197-5.358l-0.059-0.008c-0.101-0.014-0.218-0.022-0.336-0.022-0.479 0-0.927 0.131-1.31 0.358l0.012-0.007c-1.357 0.94-3.039 1.502-4.851 1.502-1.828 0-3.523-0.572-4.915-1.546l0.028 0.018c-0.348-0.24-0.779-0.384-1.244-0.384-0.17 0-0.335 0.019-0.493 0.055l0.015-0.003c-3.209 0.604-5.839 2.66-7.218 5.445l-0.026 0.059c-0.105 0.171-0.167 0.378-0.167 0.599 0 0.266 0.090 0.511 0.24 0.706l-0.002-0.003c2.907 4.596 7.963 7.603 13.72 7.603s10.813-3.007 13.681-7.537l0.039-0.066c0.17-0.207 0.273-0.474 0.273-0.766 0-0.24-0.070-0.464-0.191-0.653l0.003 0.005z"></path>
<path fill="#3c2c63" style="fill: var(--color7, #3c2c63)" d="M16.359 16.92c0.049 0.001 0.108 0.002 0.166 0.002 4.491 0 8.132-3.641 8.132-8.132s-3.641-8.132-8.132-8.132c-4.427 0-8.028 3.538-8.13 7.94v0.009c-0.001 0.050-0.002 0.11-0.002 0.169 0 4.436 3.545 8.043 7.956 8.144h0.009z"></path>
</symbol>
<symbol id="icon-Mask-Group-1711" viewBox="0 0 33 32">
<path fill="#17ff4d" style="fill: var(--color4, #17ff4d)" d="M30.599 23.069c-1.424-2.815-4.068-4.834-7.217-5.373l-0.059-0.008c-0.102-0.014-0.221-0.023-0.341-0.023-0.48 0-0.929 0.131-1.314 0.36l0.012-0.007c-1.361 0.943-3.047 1.507-4.865 1.507-1.834 0-3.534-0.574-4.93-1.551l0.028 0.018c-0.35-0.241-0.782-0.386-1.249-0.386-0.17 0-0.336 0.019-0.496 0.056l0.015-0.003c-3.218 0.605-5.855 2.667-7.238 5.461l-0.026 0.059c-0.105 0.171-0.168 0.379-0.168 0.601 0 0.266 0.090 0.512 0.241 0.707l-0.002-0.003c2.915 4.609 7.985 7.624 13.759 7.624s10.843-3.016 13.719-7.558l0.039-0.066c0.172-0.208 0.277-0.478 0.277-0.773 0-0.238-0.068-0.46-0.186-0.647l0.003 0.005z"></path>
<path fill="#17ff4d" style="fill: var(--color4, #17ff4d)" d="M16.615 16.969c0.050 0.001 0.108 0.002 0.167 0.002 4.504 0 8.155-3.651 8.155-8.155s-3.651-8.155-8.155-8.155c-4.44 0-8.051 3.548-8.153 7.963v0.009c-0.001 0.050-0.002 0.109-0.002 0.168 0 4.448 3.555 8.066 7.978 8.167h0.009z"></path>
</symbol>
<symbol id="icon-Path-405" viewBox="0 0 36 32">
<path fill="#ff0" style="fill: var(--color1, #ff0)" d="M28.498 13.478c-1.114-0.492-2.412-0.778-3.778-0.778-2.085 0-4.014 0.667-5.585 1.8l0.028-0.019c1.749 2.125 2.81 4.873 2.81 7.869 0 2.998-1.062 5.748-2.83 7.895l0.017-0.021c1.542 1.093 3.461 1.747 5.533 1.747 5.323 0 9.638-4.315 9.638-9.638 0-3.947-2.373-7.34-5.77-8.83l-0.062-0.024zM29.52 23.388h-0.024c-0.75-0.004-1.358-0.606-1.369-1.354v-0.001c-0.016-1.402-0.956-2.58-2.238-2.956l-0.022-0.006c-0.577-0.174-0.989-0.7-0.989-1.322 0-0.761 0.617-1.378 1.378-1.378 0.13 0 0.256 0.018 0.375 0.052l-0.010-0.002c2.454 0.714 4.222 2.928 4.253 5.56v0.004c0 0.008 0 0.018 0 0.028 0 0.752-0.603 1.363-1.352 1.376h-0.001zM13.4 13.478c-1.124-0.497-2.434-0.786-3.813-0.786-5.326 0-9.644 4.318-9.644 9.644s4.318 9.644 9.644 9.644c3.948 0 7.342-2.372 8.834-5.769l0.024-0.062c0.506-1.131 0.801-2.45 0.801-3.839 0-3.946-2.381-7.335-5.785-8.81l-0.062-0.024zM14.423 23.388h-0.024c-0.75-0.004-1.357-0.607-1.37-1.354v-0.001c-0.029-1.397-0.963-2.569-2.238-2.955l-0.022-0.006c-0.577-0.174-0.989-0.7-0.989-1.322 0-0.761 0.617-1.378 1.378-1.378 0.13 0 0.256 0.018 0.375 0.052l-0.010-0.002c2.454 0.714 4.222 2.929 4.253 5.561v0.004c0 0.008 0 0.017 0 0.026 0 0.752-0.603 1.363-1.352 1.376h-0.001zM13.008 8.859l3.925-4.247 3.927 4.247c0.251 0.271 0.609 0.44 1.006 0.44 0.362 0 0.69-0.14 0.935-0.369l-0.001 0.001c0.27-0.253 0.438-0.612 0.438-1.009 0-0.362-0.139-0.691-0.367-0.938l0.001 0.001-4.932-5.334c-0.256-0.26-0.612-0.422-1.006-0.422s-0.75 0.161-1.006 0.422v0l-4.932 5.334c-0.248 0.249-0.401 0.592-0.401 0.971 0 0.76 0.616 1.376 1.376 1.376 0.413 0 0.784-0.182 1.037-0.471l0.001-0.002zM31.752 4.101c-2.521-2.534-6.011-4.102-9.868-4.102-0.621 0-1.233 0.041-1.833 0.12l0.071-0.008 15.602 15.667c0.072-0.534 0.113-1.151 0.113-1.777 0-3.864-1.561-7.363-4.086-9.902l0.001 0.001z"></path>
</symbol>
<symbol id="icon-plus-square" viewBox="0 0 32 32">
<path d="M6.667 2.667c-1.104 0-2.107 0.449-2.828 1.172s-1.172 1.724-1.172 2.828v18.667c0 1.104 0.449 2.107 1.172 2.828s1.724 1.172 2.828 1.172h18.667c1.104 0 2.107-0.449 2.828-1.172s1.172-1.724 1.172-2.828v-18.667c0-1.104-0.449-2.107-1.172-2.828s-1.724-1.172-2.828-1.172zM6.667 5.333h18.667c0.368 0 0.7 0.148 0.943 0.391s0.391 0.575 0.391 0.943v18.667c0 0.368-0.148 0.7-0.391 0.943s-0.575 0.391-0.943 0.391h-18.667c-0.368 0-0.7-0.148-0.943-0.391s-0.391-0.575-0.391-0.943v-18.667c0-0.368 0.148-0.7 0.391-0.943s0.575-0.391 0.943-0.391zM10.667 17.333h4v4c0 0.736 0.597 1.333 1.333 1.333s1.333-0.597 1.333-1.333v-4h4c0.736 0 1.333-0.597 1.333-1.333s-0.597-1.333-1.333-1.333h-4v-4c0-0.736-0.597-1.333-1.333-1.333s-1.333 0.597-1.333 1.333v4h-4c-0.736 0-1.333 0.597-1.333 1.333s0.597 1.333 1.333 1.333z"></path>
</symbol>
<symbol id="icon-shrink" viewBox="0 0 32 32">
<path d="M18 14h13l-5-5 6-6-3-3-6 6-5-5z"></path>
<path d="M18 18v13l5-5 6 6 3-3-6-6 5-5z"></path>
<path d="M14 18h-13l5 5-6 6 3 3 6-6 5 5z"></path>
<path d="M14 14v-13l-5 5-6-6-3 3 6 6-5 5z"></path>
</symbol>
<symbol id="icon-shrink1" viewBox="0 0 32 32">
<path d="M18 14h13l-5-5 6-6-3-3-6 6-5-5z"></path>
<path d="M18 18v13l5-5 6 6 3-3-6-6 5-5z"></path>
<path d="M14 18h-13l5 5-6 6 3 3 6-6 5 5z"></path>
<path d="M14 14v-13l-5 5-6-6-3 3 6 6-5 5z"></path>
</symbol>
<symbol id="icon-shrink11" viewBox="0 0 32 32">
<path d="M18 14h13l-5-5 6-6-3-3-6 6-5-5z"></path>
<path d="M18 18v13l5-5 6 6 3-3-6-6 5-5z"></path>
<path d="M14 18h-13l5 5-6 6 3 3 6-6 5 5z"></path>
<path d="M14 14v-13l-5 5-6-6-3 3 6 6-5 5z"></path>
</symbol>
<symbol id="icon-volume-medium" viewBox="0 0 32 32">
<path d="M22.485 25.985c-0.384 0-0.768-0.146-1.061-0.439-0.586-0.586-0.586-1.535 0-2.121 4.094-4.094 4.094-10.755 0-14.849-0.586-0.586-0.586-1.536 0-2.121s1.536-0.586 2.121 0c2.55 2.55 3.954 5.94 3.954 9.546s-1.404 6.996-3.954 9.546c-0.293 0.293-0.677 0.439-1.061 0.439v0zM17.157 23.157c-0.384 0-0.768-0.146-1.061-0.439-0.586-0.586-0.586-1.535 0-2.121 2.534-2.534 2.534-6.658 0-9.192-0.586-0.586-0.586-1.536 0-2.121s1.535-0.586 2.121 0c3.704 3.704 3.704 9.731 0 13.435-0.293 0.293-0.677 0.439-1.061 0.439z"></path>
<path d="M13 30c-0.26 0-0.516-0.102-0.707-0.293l-7.707-7.707h-3.586c-0.552 0-1-0.448-1-1v-10c0-0.552 0.448-1 1-1h3.586l7.707-7.707c0.286-0.286 0.716-0.372 1.090-0.217s0.617 0.519 0.617 0.924v26c0 0.404-0.244 0.769-0.617 0.924-0.124 0.051-0.254 0.076-0.383 0.076z"></path>
</symbol>
<symbol id="icon-volume-medium1" viewBox="0 0 32 32">
<path d="M22.485 25.985c-0.384 0-0.768-0.146-1.061-0.439-0.586-0.586-0.586-1.535 0-2.121 4.094-4.094 4.094-10.755 0-14.849-0.586-0.586-0.586-1.536 0-2.121s1.536-0.586 2.121 0c2.55 2.55 3.954 5.94 3.954 9.546s-1.404 6.996-3.954 9.546c-0.293 0.293-0.677 0.439-1.061 0.439v0zM17.157 23.157c-0.384 0-0.768-0.146-1.061-0.439-0.586-0.586-0.586-1.535 0-2.121 2.534-2.534 2.534-6.658 0-9.192-0.586-0.586-0.586-1.536 0-2.121s1.535-0.586 2.121 0c3.704 3.704 3.704 9.731 0 13.435-0.293 0.293-0.677 0.439-1.061 0.439z"></path>
<path d="M13 30c-0.26 0-0.516-0.102-0.707-0.293l-7.707-7.707h-3.586c-0.552 0-1-0.448-1-1v-10c0-0.552 0.448-1 1-1h3.586l7.707-7.707c0.286-0.286 0.716-0.372 1.090-0.217s0.617 0.519 0.617 0.924v26c0 0.404-0.244 0.769-0.617 0.924-0.124 0.051-0.254 0.076-0.383 0.076z"></path>
</symbol>
<symbol id="icon-volume-medium11" viewBox="0 0 32 32">
<path d="M22.485 25.985c-0.384 0-0.768-0.146-1.061-0.439-0.586-0.586-0.586-1.535 0-2.121 4.094-4.094 4.094-10.755 0-14.849-0.586-0.586-0.586-1.536 0-2.121s1.536-0.586 2.121 0c2.55 2.55 3.954 5.94 3.954 9.546s-1.404 6.996-3.954 9.546c-0.293 0.293-0.677 0.439-1.061 0.439v0zM17.157 23.157c-0.384 0-0.768-0.146-1.061-0.439-0.586-0.586-0.586-1.535 0-2.121 2.534-2.534 2.534-6.658 0-9.192-0.586-0.586-0.586-1.536 0-2.121s1.535-0.586 2.121 0c3.704 3.704 3.704 9.731 0 13.435-0.293 0.293-0.677 0.439-1.061 0.439z"></path>
<path d="M13 30c-0.26 0-0.516-0.102-0.707-0.293l-7.707-7.707h-3.586c-0.552 0-1-0.448-1-1v-10c0-0.552 0.448-1 1-1h3.586l7.707-7.707c0.286-0.286 0.716-0.372 1.090-0.217s0.617 0.519 0.617 0.924v26c0 0.404-0.244 0.769-0.617 0.924-0.124 0.051-0.254 0.076-0.383 0.076z"></path>
</symbol>
<symbol id="icon-yidva-chipisa" viewBox="0 0 30 32">
<path d="M7.256 6.957c-0.002 0.040-0.003 0.086-0.003 0.133 0 0.826 0.391 1.561 0.998 2.030l0.006 0.004c0.716 0.594 1.552 1.074 2.463 1.396l0.057 0.018c2.296 0.81 4.943 1.277 7.7 1.277 0.154 0 0.308-0.001 0.462-0.004h-0.023c0.575-0.033 1.462-0.063 2.344-0.143 1.97-0.153 3.796-0.578 5.504-1.238l-0.132 0.045c0.904-0.334 1.684-0.79 2.368-1.359l-0.013 0.011c0.613-0.475 1.003-1.211 1.003-2.038 0-0.045-0.001-0.090-0.003-0.135v0.006c-0.037-0.72-0.035-1.443 0-2.167 0.001-0.030 0.002-0.066 0.002-0.102 0-0.799-0.371-1.51-0.95-1.973l-0.005-0.004c-0.737-0.626-1.602-1.127-2.549-1.456l-0.056-0.017c-1.681-0.628-3.625-1.046-5.649-1.164l-0.054-0.003c-0.657-0.062-1.422-0.097-2.194-0.097-2.454 0-4.826 0.354-7.067 1.015l0.177-0.045c-1.314 0.353-2.457 0.952-3.432 1.75l0.016-0.013c-0.595 0.469-0.973 1.189-0.973 1.998 0 0.053 0.002 0.105 0.005 0.157v-0.007c0.018 0.317 0.028 0.689 0.028 1.063s-0.010 0.745-0.030 1.114l0.002-0.051z"></path>
<path d="M25.658 24.218c1.3-0.353 2.43-0.952 3.39-1.749l-0.015 0.012c0.59-0.467 0.965-1.183 0.965-1.987 0-0.043-0.001-0.086-0.003-0.129v0.006c-0.037-0.72 0-1.442 0-2.167 0-0.1-0.012-0.198-0.020-0.318-0.427 0.25-0.812 0.5-1.218 0.708-2.453 1.186-5.324 1.918-8.355 2.011l-0.032 0.001c0.093 0.26 0.147 0.56 0.147 0.872 0 0 0 0.001 0 0.001v0c-0.018 0.892-0.434 1.684-1.076 2.208l-0.005 0.004-1.667 1.475c0.334 0.017 0.726 0.026 1.12 0.026 2.413 0 4.744-0.356 6.941-1.019l-0.17 0.044z"></path>
<path d="M29.988 25.624v-0.933c-0.448 0.262-0.833 0.513-1.24 0.72-2.502 1.205-5.431 1.941-8.524 2.020l-0.027 0.001c-0.485 0.030-1.052 0.047-1.623 0.047-1.127 0-2.239-0.066-3.332-0.194l0.133 0.013-2.505 2.23c-0.263 0.237-0.535 0.48-0.833 0.727-0.3 0.247-0.656 0.441-1.043 0.561l-0.022 0.006c1.652 0.596 3.561 0.993 5.547 1.104l0.053 0.002c0.641 0.059 1.387 0.092 2.14 0.092 2.485 0 4.886-0.364 7.151-1.043l-0.176 0.045c1.284-0.354 2.4-0.948 3.348-1.737l-0.014 0.012c0.59-0.462 0.965-1.174 0.965-1.974 0-0.048-0.001-0.096-0.004-0.143v0.007c-0.020-0.518 0.007-1.042 0.007-1.562z"></path>
<path d="M7.351 28.005c0 0.023 0.013 0.047 0.022 0.070v-0.078z"></path>
<path d="M7.396 14.537c0.107-1.017 0.741-1.864 1.621-2.27l0.017-0.007c-0.688-0.327-1.269-0.66-1.821-1.032l0.050 0.031c0 0.857 0.010 1.657 0 2.457-0.001 0.020-0.001 0.043-0.001 0.067 0 0.27 0.049 0.529 0.139 0.768l-0.005-0.015z"></path>
<path d="M28.541 16.055c0.723-0.391 1.244-1.076 1.407-1.891l0.003-0.018c0.092-0.933 0.020-1.882 0.020-2.854-0.057 0.023-0.104 0.046-0.149 0.071l0.006-0.003c-1.406 0.928-3.053 1.628-4.821 2l-0.093 0.016c-1.877 0.446-4.032 0.702-6.246 0.702-1.186 0-2.356-0.073-3.503-0.216l0.137 0.014c-0.807-0.093-1.604-0.213-2.392-0.373 1.133 1 2.27 2 3.377 2.989l2.117 1.877c0.116 0.002 0.253 0.003 0.39 0.003 1.952 0 3.853-0.222 5.678-0.641l-0.17 0.033c1.604-0.314 3.027-0.91 4.283-1.738l-0.045 0.028z"></path>
<path d="M12.135 26.739l5.586-4.966c0.295-0.262 0.295-0.317-0.010-0.587l-3.595-3.184q-1.872-1.667-3.749-3.315c-0.066-0.051-0.15-0.082-0.242-0.082 0 0 0 0 0 0v0c-0.001 0-0.003 0-0.005 0-0.024 0-0.048 0.004-0.070 0.011h0.002c-0.062 0.020-0.11 0.177-0.112 0.273 0 0.572 0 1.145 0 1.717 0 0.052 0 0.103 0 0.155 0 0.387 0 0.773 0 1.167l-0.167 0.015c-0.681 0.040-1.32 0.152-1.93 0.329l0.062-0.015q-0.333 0.092-0.648 0.208c-0.637 0.236-1.183 0.507-1.695 0.828l0.039-0.022c-1.978 1.26-3.495 3.091-4.334 5.26l-0.025 0.074c-0.793 2.002-1.252 4.322-1.252 6.748 0 0.13 0.001 0.26 0.004 0.39v-0.019c0 0.132 0.025 0.242 0.177 0.262h0.040c0.147 0 0.188-0.123 0.225-0.243 0.622-1.915 1.795-3.508 3.33-4.636l0.026-0.018c0.985-0.77 2.14-1.378 3.394-1.759l0.075-0.020q0.375-0.107 0.763-0.182c0.247-0.052 0.558-0.097 0.874-0.127l0.036-0.003c0.12-0.012 0.242-0.015 0.365-0.015 0.21 0 0.422 0.010 0.638 0.010 0 0.11 0 0.19 0 0.272q0 0.387 0 0.773c0 0.667 0 1.342 0 2.014 0 0.11 0.057 0.293 0.12 0.31 0.008 0.001 0.018 0.002 0.027 0.002s0.019-0.001 0.029-0.002h-0.001c0.11-0.006 0.21-0.047 0.289-0.112l-0.001 0.001c0.348-0.288 0.682-0.597 1.020-0.898z"></path>
</symbol>
</defs>
</svg>
